/* XPM */
static char * small_xpm[] = {
"8 8 3 1",
" 	c None",
".	c #C8262B",
"+	c #FDFDFA",
"        ",
"  +++   ",
" + . +  ",
" +++++  ",
" +.+.+  ",
" +...+  ",
"  +++   ",
"        "};
