/* XPM */
static char * SpeedLimit70_xpm[] = {
"64 64 5 1",
" 	c None",
".	c #050600",
"+	c #5D4802",
"@	c #CF2A2B",
"#	c #FCCD00",
"                           @@@@@@@@@@                           ",
"                      @@@@@@@@@@@@@@@@@@@@                      ",
"                    @@@@@@@@@@@@@@@@@@@@@@@@                    ",
"                 @@@@@@@@@@@@@@@@@@@@@@@@@@@@@@                 ",
"                @@@@@@@@@@@@@@@@@@@@@@@@@@@@@@@@                ",
"              @@@@@@@@@@@@@@@@@@@@@@@@@@@@@@@@@@@@              ",
"             @@@@@@@@@@@@@@@@@@@@@@@@@@@@@@@@@@@@@@             ",
"           @@@@@@@@@@@@@@@@@@@@@@@@@@@@@@@@@@@@@@@@@@           ",
"          @@@@@@@@@@@@@@@##############@@@@@@@@@@@@@@@          ",
"         @@@@@@@@@@@@@####################@@@@@@@@@@@@@         ",
"        @@@@@@@@@@@@########################@@@@@@@@@@@@        ",
"       @@@@@@@@@@@@##########################@@@@@@@@@@@@       ",
"       @@@@@@@@@@##############################@@@@@@@@@@       ",
"      @@@@@@@@@@################################@@@@@@@@@@      ",
"     @@@@@@@@@@##################################@@@@@@@@@@     ",
"     @@@@@@@@@####################################@@@@@@@@@     ",
"    @@@@@@@@@######################################@@@@@@@@@    ",
"   @@@@@@@@@###................##########+...+######@@@@@@@@@   ",
"   @@@@@@@@@###...............+########........+####@@@@@@@@@   ",
"   @@@@@@@@####...............########...........####@@@@@@@@   ",
"  @@@@@@@@#####...............#######.............####@@@@@@@@  ",
"  @@@@@@@@#####..............+######...............###@@@@@@@@  ",
" @@@@@@@@###############.....######+.....+###......+###@@@@@@@@ ",
" @@@@@@@@###############.....######.....+#####......###@@@@@@@@ ",
" @@@@@@@@##############+....+#####+.....#######.....+##@@@@@@@@ ",
" @@@@@@@###############.....######.....########+....+###@@@@@@@ ",
" @@@@@@@###############.....######.....#########.....###@@@@@@@ ",
"@@@@@@@@##############+....+#####+....+#########+....###@@@@@@@@",
"@@@@@@@@##############.....######.....##########+....+##@@@@@@@@",
"@@@@@@@@##############.....######.....###########.....##@@@@@@@@",
"@@@@@@@@#############+....+######.....###########.....##@@@@@@@@",
"@@@@@@@@#############.....#######.....###########.....##@@@@@@@@",
"@@@@@@@@#############.....#######.....###########.....##@@@@@@@@",
"@@@@@@@@############+....+#######.....###########.....##@@@@@@@@",
"@@@@@@@@############.....########.....###########.....##@@@@@@@@",
"@@@@@@@@############.....########.....##########+....+##@@@@@@@@",
"@@@@@@@@###########+....+########+....+#########+....+##@@@@@@@@",
" @@@@@@@###########.....##########.....#########.....###@@@@@@@ ",
" @@@@@@@###########.....##########.....########+....+###@@@@@@@ ",
" @@@@@@@@#########+....+##########+.....#######.....+##@@@@@@@@ ",
" @@@@@@@@#########.....############.....+#####......###@@@@@@@@ ",
" @@@@@@@@#########.....############+.....+###......+###@@@@@@@@ ",
"  @@@@@@@@#######+....+#############...............###@@@@@@@@  ",
"  @@@@@@@@#######.....###############.............####@@@@@@@@  ",
"   @@@@@@@@######.....################...........####@@@@@@@@   ",
"   @@@@@@@@@####+....+#################........+####@@@@@@@@@   ",
"   @@@@@@@@@####.....###################+....+######@@@@@@@@@   ",
"    @@@@@@@@@######################################@@@@@@@@@    ",
"     @@@@@@@@@####################################@@@@@@@@@     ",
"     @@@@@@@@@@##################################@@@@@@@@@@     ",
"      @@@@@@@@@@################################@@@@@@@@@@      ",
"       @@@@@@@@@@##############################@@@@@@@@@@       ",
"       @@@@@@@@@@@@##########################@@@@@@@@@@@@       ",
"        @@@@@@@@@@@@########################@@@@@@@@@@@@        ",
"         @@@@@@@@@@@@@####################@@@@@@@@@@@@@         ",
"          @@@@@@@@@@@@@@@##############@@@@@@@@@@@@@@@          ",
"           @@@@@@@@@@@@@@@@@@@@@@@@@@@@@@@@@@@@@@@@@@           ",
"             @@@@@@@@@@@@@@@@@@@@@@@@@@@@@@@@@@@@@@             ",
"              @@@@@@@@@@@@@@@@@@@@@@@@@@@@@@@@@@@@              ",
"                @@@@@@@@@@@@@@@@@@@@@@@@@@@@@@@@                ",
"                 @@@@@@@@@@@@@@@@@@@@@@@@@@@@@@                 ",
"                    @@@@@@@@@@@@@@@@@@@@@@@@                    ",
"                      @@@@@@@@@@@@@@@@@@@@                      ",
"                           @@@@@@@@@@                           "};
